<svg width="626" height="626" viewBox="0 0 626 626" fill="none" xmlns="http://www.w3.org/2000/svg">
<g clip-path="url(#clip0_35_107)">
<g clip-path="url(#clip1_35_107)">
<path d="M60.0631 404.625C80.0152 382.565 121.164 386.435 153.975 403.713C188.085 336.972 260.352 317.43 300.768 342.625C327.682 359.403 341.035 396.37 338.15 434.713C341.708 434.864 353.218 435.807 362.768 444.742C378.173 459.156 373.987 480.805 373.709 482.125C393.523 438.249 445.293 420.63 484.032 440.184C518.029 457.343 535.627 499.92 522.326 539.566H82.8562C65.5337 539.597 -4.672 476.198 60.0631 404.625Z" stroke="#1A1A1A" stroke-width="0.73548" stroke-linecap="round" stroke-linejoin="round"/>
<path d="M386.199 370.92L376.729 351.751L372.437 353.717L382.234 373.083L386.199 370.92Z" fill="white" stroke="#1A1A1A" stroke-width="0.49032" stroke-linecap="round" stroke-linejoin="round"/>
<path d="M381.612 379.898C381.612 379.898 390 393.792 389.607 397.2C389.214 400.608 384.233 399.69 384.233 399.69C384.233 399.69 377.548 387.238 374.665 380.816C371.781 374.393 379.121 372.952 379.121 372.952L386.723 368.888C386.723 368.888 407.171 410.176 408.35 413.059L399.044 415.812L389.414 397.968" fill="white"/>
<path d="M381.612 379.898C381.612 379.898 390 393.792 389.607 397.2C389.214 400.608 384.233 399.69 384.233 399.69C384.233 399.69 377.548 387.238 374.665 380.816C371.781 374.393 379.121 372.952 379.121 372.952L386.723 368.888C386.723 368.888 407.171 410.176 408.35 413.059L399.044 415.812L389.414 397.968" stroke="#1A1A1A" stroke-width="0.49032" stroke-linecap="round" stroke-linejoin="round"/>
<path d="M385.806 373.738C385.806 373.738 384.626 374.525 382.66 375.704C380.694 376.884 381.612 379.898 381.612 379.898M409.53 340.184L408.35 410.7C408.35 410.7 428.666 413.453 428.928 410.7C429.191 407.948 432.205 340.839 432.205 340.839L409.53 340.184Z" fill="white"/>
<path d="M385.806 373.738C385.806 373.738 384.626 374.525 382.66 375.704C380.694 376.884 381.612 379.898 381.612 379.898M409.53 340.184L408.35 410.7C408.35 410.7 428.666 413.453 428.928 410.7C429.191 407.948 432.205 340.839 432.205 340.839L409.53 340.184Z" stroke="#1A1A1A" stroke-width="0.49032" stroke-linecap="round" stroke-linejoin="round"/>
<path d="M407.564 354.209L433.516 355.126L432.205 379.636H407.04L407.564 354.209Z" fill="#0D031C" stroke="#1A1A1A" stroke-width="0.24516" stroke-linecap="round" stroke-linejoin="round"/>
<path d="M453.439 351.751L450.555 340.184L455.405 327.994L468.512 318.688L470.74 319.213L473.23 333.499L468.119 347.786L460.385 353.291L453.439 351.751Z" fill="#0D031C" stroke="#1A1A1A" stroke-width="0.24516" stroke-linecap="round" stroke-linejoin="round"/>
<path d="M466.677 327.47L456.846 353.291" stroke="white" stroke-width="0.73548" stroke-linecap="round" stroke-linejoin="round"/>
<path d="M451.735 350.407L433.516 411.224L443.215 411.923L462.876 351.751L451.735 350.407Z" fill="white" stroke="#1A1A1A" stroke-width="0.49032" stroke-linecap="round" stroke-linejoin="round"/>
<path d="M449.277 412.404L467.66 368.888L482.602 373.574L487.91 381.165L476.016 408.472C476.016 408.472 471.789 406.899 471.887 406.604C471.985 406.309 480.341 387.828 480.341 387.828L477.89 384.397L463.793 414.37" fill="white"/>
<path d="M449.277 412.404L467.66 368.888L482.602 373.574L487.91 381.165L476.016 408.472C476.016 408.472 471.789 406.899 471.887 406.604C471.985 406.309 480.341 387.828 480.341 387.828L477.89 384.397L463.793 414.37" stroke="#1A1A1A" stroke-width="0.49032" stroke-linecap="round" stroke-linejoin="round"/>
<path d="M482.602 373.574L477.89 384.397" stroke="#1A1A1A" stroke-width="0.49032" stroke-linecap="round" stroke-linejoin="round"/>
<path d="M380.563 418.302L391.049 509.003H455.274L464.711 418.302H380.563Z" fill="white" stroke="#1A1A1A" stroke-width="0.49032" stroke-linecap="round" stroke-linejoin="round"/>
<path d="M469.692 410.176H372.437V421.448H469.692V410.176Z" fill="white" stroke="#1A1A1A" stroke-width="0.49032" stroke-linecap="round" stroke-linejoin="round"/>
<path d="M104.588 539.566L509.34 539.412C516.778 500.749 496.228 465.105 468.053 455.657C433.701 444.138 385.92 470.857 378.401 520.538C375.015 513.75 368.253 509.38 360.902 509.266C351.297 509.116 345.545 516.309 344.912 517.13C342.758 489.197 324.213 465.435 298.513 457.361C269.485 448.243 236.784 460.852 220.394 488.294C194 452.338 146.56 447.41 120.78 469.158C101.968 485.028 95.1647 511.79 104.588 539.566Z" fill="white" stroke="#1A1A1A" stroke-width="0.49032" stroke-linecap="round" stroke-linejoin="round"/>
<path d="M109.773 539.436H380.563C380.563 539.436 384.194 570.619 256.548 570.108C128.901 569.597 109.773 539.436 109.773 539.436Z" fill="white" stroke="#1A1A1A" stroke-width="0.49032" stroke-linecap="round" stroke-linejoin="round"/>
<path d="M13.5632 539.566H610.767" stroke="#1A1A1A" stroke-width="0.73548" stroke-linecap="round" stroke-linejoin="round"/>
<path d="M138.494 84.0711C138.395 84.9524 138.345 85.8385 138.344 86.7253V278.417C138.344 284.752 140.861 290.828 145.341 295.308C149.82 299.788 155.896 302.304 162.232 302.304H436.498C442.833 302.304 448.909 299.788 453.389 295.308C457.869 290.828 460.385 284.752 460.385 278.417V86.7253C460.384 85.8385 460.334 84.9524 460.235 84.0711H138.494Z" fill="white" stroke="#1A1A1A" stroke-width="0.49032" stroke-linecap="round" stroke-linejoin="round"/>
<path d="M436.498 62.8377H162.232C156.356 62.8383 150.687 65.0042 146.308 68.9214C141.929 72.8385 139.147 78.2321 138.494 84.0711H460.235C459.582 78.2321 456.8 72.8385 452.421 68.9214C448.042 65.0043 442.373 62.8384 436.498 62.8377Z" fill="#0D031C" stroke="#1A1A1A" stroke-width="0.24516" stroke-linecap="round" stroke-linejoin="round"/>
<path d="M292.964 105.894H160.757V282.84H292.964V105.894Z" fill="white" stroke="#1A1A1A" stroke-width="0.49032" stroke-linecap="round" stroke-linejoin="round"/>
<path d="M412.02 105.894H313.237V282.84H412.02V105.894Z" fill="white" stroke="#1A1A1A" stroke-width="0.49032" stroke-linecap="round" stroke-linejoin="round"/>
<path d="M425.783 84.0712V302.304" stroke="#1A1A1A" stroke-width="0.49032" stroke-linecap="round" stroke-linejoin="round"/>
<path d="M442.888 114.349C445.602 114.349 447.803 112.148 447.803 109.433C447.803 106.719 445.602 104.518 442.888 104.518C440.173 104.518 437.972 106.719 437.972 109.433C437.972 112.148 440.173 114.349 442.888 114.349Z" fill="white" stroke="#1A1A1A" stroke-width="0.49032" stroke-linecap="round" stroke-linejoin="round"/>
<path d="M442.888 153.998C445.602 153.998 447.803 151.797 447.803 149.083C447.803 146.368 445.602 144.167 442.888 144.167C440.173 144.167 437.972 146.368 437.972 149.083C437.972 151.797 440.173 153.998 442.888 153.998Z" fill="white" stroke="#1A1A1A" stroke-width="0.49032" stroke-linecap="round" stroke-linejoin="round"/>
<path d="M442.888 193.647C445.602 193.647 447.803 191.446 447.803 188.732C447.803 186.017 445.602 183.817 442.888 183.817C440.173 183.817 437.972 186.017 437.972 188.732C437.972 191.446 440.173 193.647 442.888 193.647Z" fill="white" stroke="#1A1A1A" stroke-width="0.49032" stroke-linecap="round" stroke-linejoin="round"/>
<path d="M442.888 233.296C445.602 233.296 447.803 231.095 447.803 228.381C447.803 225.666 445.602 223.466 442.888 223.466C440.173 223.466 437.972 225.666 437.972 228.381C437.972 231.095 440.173 233.296 442.888 233.296Z" fill="#0D031C" stroke="#1A1A1A" stroke-width="0.24516" stroke-linecap="round" stroke-linejoin="round"/>
<path d="M400.814 118.084H350.679V122.606H400.814V118.084Z" fill="white" stroke="#1A1A1A" stroke-width="0.49032" stroke-linecap="round" stroke-linejoin="round"/>
<path d="M400.688 134.327H327.684V138.849H400.688V134.327Z" fill="white" stroke="#1A1A1A" stroke-width="0.49032" stroke-linecap="round" stroke-linejoin="round"/>
<path d="M400.688 149.083H327.684V153.605H400.688V149.083Z" fill="white" stroke="#1A1A1A" stroke-width="0.49032" stroke-linecap="round" stroke-linejoin="round"/>
<path d="M400.688 163.838H327.684V168.36H400.688V163.838Z" fill="white" stroke="#1A1A1A" stroke-width="0.49032" stroke-linecap="round" stroke-linejoin="round"/>
<path d="M400.688 178.593H327.684V183.115H400.688V178.593Z" fill="white" stroke="#1A1A1A" stroke-width="0.49032" stroke-linecap="round" stroke-linejoin="round"/>
<path d="M321.385 93.115V98.2267H331.903V122.606H337.605V98.2267H348.123V93.115H321.385Z" fill="#0D031C" stroke="#1A1A1A" stroke-width="0.24516" stroke-linecap="round" stroke-linejoin="round"/>
<path d="M257.848 231.755C257.848 231.755 268.596 283.452 284.848 287.384C301.101 291.316 315.519 267.679 315.519 267.679L308.965 266.15L301.036 267.199C291.009 271.131 279.212 250.291 276.46 226.698C273.707 203.105 255.62 195.831 255.62 195.831M165.475 523.094C164.31 521.095 165.307 517.468 166.396 514.687C160.544 515.02 155.088 514.035 150.719 509.657C146.998 516.097 140.387 528.555 142.178 532.924C144.635 538.92 170.882 549.635 178.058 550.52C185.234 551.405 188.085 547.866 185.923 545.015C183.76 542.164 168.031 525.354 165.475 523.094Z" fill="white"/>
<path d="M257.848 231.755C257.848 231.755 268.596 283.452 284.848 287.384C301.101 291.316 315.519 267.679 315.519 267.679L308.965 266.15L301.036 267.199C291.009 271.131 279.212 250.291 276.46 226.698C273.707 203.105 255.62 195.831 255.62 195.831M165.475 523.094C164.31 521.095 165.307 517.468 166.396 514.687C160.544 515.02 155.088 514.035 150.719 509.657C146.998 516.097 140.387 528.554 142.178 532.924C144.635 538.92 170.882 549.635 178.058 550.52C185.234 551.405 188.085 547.866 185.923 545.015C183.76 542.164 168.031 525.354 165.475 523.094Z" stroke="#1A1A1A" stroke-width="0.49032" stroke-linecap="round" stroke-linejoin="round"/>
<path d="M166.396 514.687C166.902 513.395 167.481 512.131 168.13 510.904L153.089 505.694C153.089 505.694 152.104 507.259 150.719 509.657C155.088 514.035 160.544 515.02 166.396 514.687ZM288.391 525.405C287.276 522.685 286.323 520.275 286.323 520.275L270.595 524.732C270.595 524.732 271.2 527.016 272.122 530.29C277.803 530.739 283.141 528.21 288.391 525.405Z" fill="#0D031C" stroke="#1A1A1A" stroke-width="0.24516" stroke-linecap="round" stroke-linejoin="round"/>
<path d="M323.285 552.65C322.63 547.8 310.44 542.033 303.1 538.363C295.76 534.693 292.614 534.169 291.697 532.858C291.204 532.154 289.687 528.569 288.391 525.405C283.141 528.21 277.803 530.739 272.121 530.29C274.17 537.572 277.78 549.757 279.769 552.65C282.653 556.844 323.94 557.5 323.285 552.65ZM265.876 276.483C265.876 276.483 268.891 282.775 268.235 294.309C267.58 305.843 259.191 349.621 243.201 380.816C227.21 412.011 178.058 511.232 170.194 513.067C162.33 514.902 149.223 506.513 150.533 503.498C151.844 500.484 199.425 373.476 208.206 347.917C216.986 322.358 225.244 282.644 225.244 282.644" fill="white"/>
<path d="M265.876 276.483C265.876 276.483 268.891 282.775 268.235 294.309C267.58 305.843 259.191 349.621 243.201 380.816C227.21 412.011 178.058 511.232 170.194 513.067C162.33 514.902 149.223 506.513 150.533 503.498C151.844 500.484 199.425 373.476 208.206 347.917C216.986 322.358 225.244 282.644 225.244 282.644M323.285 552.65C322.63 547.8 310.44 542.033 303.1 538.363C295.76 534.693 292.614 534.169 291.697 532.858C291.204 532.154 289.687 528.569 288.391 525.405C283.141 528.21 277.803 530.739 272.121 530.29C274.17 537.572 277.78 549.757 279.769 552.65C282.653 556.844 323.94 557.5 323.285 552.65Z" stroke="#1A1A1A" stroke-width="0.49032" stroke-linecap="round" stroke-linejoin="round"/>
<path d="M249.361 305.712C250.147 308.858 248.968 311.479 248.312 318.95C247.657 326.421 258.929 383.175 261.288 394.447C263.648 405.719 291.173 511.952 292.745 516.606C294.318 521.259 287.175 525.846 277.934 527.288C268.694 528.73 266.138 523.159 264.827 520.8C263.517 518.441 187.495 343.788 184.743 321.768C182.731 305.674 187.651 290.805 190.445 283.968C191.474 281.451 192.214 280.022 192.214 280.022L246.871 283.823" fill="white"/>
<path d="M249.361 305.712C250.147 308.858 248.968 311.479 248.312 318.95C247.657 326.421 258.929 383.175 261.288 394.447C263.648 405.719 291.173 511.953 292.745 516.606C294.318 521.259 287.175 525.846 277.934 527.288C268.694 528.73 266.138 523.159 264.827 520.8C263.517 518.441 187.495 343.788 184.743 321.768C182.731 305.674 187.651 290.805 190.445 283.968C191.474 281.451 192.214 280.022 192.214 280.022L246.871 283.823" stroke="#1A1A1A" stroke-width="0.49032" stroke-linecap="round" stroke-linejoin="round"/>
<path d="M193.028 283.867C193.028 283.867 194.42 289.43 219.19 292.985C243.959 296.539 251.989 289.957 260.043 288.055C260.043 288.055 268.139 283.588 267.689 282.196L265.876 276.483L192.214 280.022L191.336 281.882L193.028 283.867Z" fill="#0D031C" stroke="#1A1A1A" stroke-width="0.24516" stroke-linecap="round" stroke-linejoin="round"/>
<path d="M255.62 190.025C255.62 190.025 263.287 190.435 270.857 203.018C278.426 215.601 279.606 225.923 279.704 226.218C279.802 226.513 280.097 228.479 276.951 230.051C273.806 231.624 268.301 234.672 268.301 234.672" fill="#9654FA"/>
<path d="M255.62 190.025C255.62 190.025 263.287 190.435 270.857 203.018C278.426 215.601 279.606 225.923 279.704 226.218C279.802 226.513 280.097 228.479 276.951 230.051C273.806 231.624 268.301 234.672 268.301 234.672" stroke="#1A1A1A" stroke-width="0.49032" stroke-linecap="round" stroke-linejoin="round"/>
<path d="M242.021 180.933C242.021 180.933 253.686 183.816 257.881 190.501C262.075 197.185 271.643 212.848 270.07 242.143C268.497 271.437 267.711 277.532 267.711 277.532C267.711 277.532 264.369 286.183 251.393 288.345C238.417 290.508 212.465 295.423 193.59 282.644C190.838 280.088 185.923 278.908 191.624 259.444C197.326 239.98 205.583 200.462 205.583 200.462L215.545 185.389" fill="#9654FA"/>
<path d="M242.021 180.933C242.021 180.933 253.686 183.816 257.881 190.501C262.075 197.185 271.643 212.848 270.07 242.143C268.497 271.437 267.711 277.532 267.711 277.532C267.711 277.532 264.369 286.183 251.393 288.345C238.417 290.508 212.465 295.423 193.59 282.644C190.838 280.088 185.923 278.908 191.624 259.444C197.326 239.98 205.583 200.462 205.583 200.462L215.545 185.389" stroke="#1A1A1A" stroke-width="0.49032" stroke-linecap="round" stroke-linejoin="round"/>
<path d="M245.429 164.024C243.594 167.301 242.676 178.967 245.429 185.389C237.827 193.384 220.394 189.452 215.545 185.389C227.865 172.675 227.996 155.767 227.996 155.767C227.996 155.767 219.411 136.958 230.487 131.257C241.562 125.555 255.128 131.257 255.128 131.257C255.128 131.257 260.043 136.172 258.47 149.05C257.263 158.932 254.44 164.09 249.033 164.09C243.627 164.09 240.963 163.545 239.301 162.91" fill="white"/>
<path d="M245.429 164.024C243.594 167.301 242.676 178.967 245.429 185.389C237.827 193.384 220.394 189.452 215.545 185.389C227.865 172.675 227.996 155.767 227.996 155.767C227.996 155.767 219.411 136.958 230.487 131.257C241.562 125.555 255.128 131.257 255.128 131.257C255.128 131.257 260.043 136.172 258.47 149.05C257.263 158.932 254.44 164.09 249.033 164.09C243.627 164.09 240.963 163.545 239.301 162.91" stroke="#1A1A1A" stroke-width="0.49032" stroke-linecap="round" stroke-linejoin="round"/>
<path d="M234.812 147.772C234.812 147.772 236.516 159.568 231.798 163.369C227.079 167.17 226.162 167.694 221.836 166.777C217.511 165.859 209.778 165.865 209.516 159.374C209.253 152.883 211.285 148.099 216.004 145.412C216.004 145.412 210.499 140.694 213.775 132.174C217.052 123.655 223.737 125.293 223.737 125.293C223.737 125.293 222.426 116.446 234.419 111.858C246.412 107.271 261.42 114.742 261.485 131.519C260.568 136.368 258.405 136.762 258.405 136.762C258.405 136.762 243.201 132.305 239.662 136.827C238.351 139.055 238.351 138.643 237.761 138.849C237.172 139.055 231.929 130.143 227.669 136.827C223.409 143.512 234.812 147.772 234.812 147.772Z" fill="#0D031C" stroke="#1A1A1A" stroke-width="0.24516" stroke-linecap="round" stroke-linejoin="round"/>
<path d="M295.236 204.198L264.958 259.837L299.365 279.458L329.249 225.824L295.236 204.198Z" fill="white" stroke="#1A1A1A" stroke-width="0.49032" stroke-linecap="round" stroke-linejoin="round"/>
<path d="M189.855 246.075C189.855 246.075 189.269 276.451 207.549 279.105C227.51 282.003 250.803 266.653 265.483 248.827C271.774 249.745 278.59 252.039 281.408 250.138C284.226 248.238 285.864 245.944 282.522 243.257C279.18 240.57 273.922 237.169 268.301 237.424C263.976 237.621 261.026 237.097 254.276 243.257C254.276 243.257 237.237 256.593 227.603 258.461C217.97 260.329 215.999 246.861 216.2 244.502" fill="white"/>
<path d="M189.855 246.075C189.855 246.075 189.269 276.451 207.549 279.105C227.51 282.003 250.803 266.653 265.483 248.827C271.774 249.745 278.59 252.039 281.408 250.138C284.226 248.238 285.864 245.944 282.522 243.257C279.18 240.57 273.922 237.169 268.301 237.424C263.976 237.621 261.026 237.097 254.276 243.257C254.276 243.257 237.237 256.593 227.603 258.461C217.97 260.329 215.999 246.861 216.2 244.502" stroke="#1A1A1A" stroke-width="0.49032" stroke-linecap="round" stroke-linejoin="round"/>
<path d="M215.545 185.389C215.545 185.389 209.122 189.321 201.127 195.482C193.131 201.642 187.364 215.798 189.855 246.075C200.603 247.779 213.841 247.123 216.2 244.502C216.986 233.623 219.542 225.235 219.149 219.73" fill="#9654FA"/>
<path d="M215.545 185.389C215.545 185.389 209.122 189.321 201.127 195.482C193.131 201.642 187.364 215.798 189.855 246.075C200.603 247.779 213.841 247.123 216.2 244.502C216.986 233.623 219.542 225.235 219.149 219.73" stroke="#1A1A1A" stroke-width="0.49032" stroke-linecap="round" stroke-linejoin="round"/>
<path d="M309.441 267.603C303.184 268.48 303.248 263.573 303.887 260.575C304.682 256.841 307.278 251.482 312.39 252.219C313.355 252.363 314.271 252.736 315.063 253.308C315.839 253.861 314.569 248.996 317.19 249.09C320.779 249.218 318.951 263.4 315.059 268.398" fill="white"/>
<path d="M309.441 267.603C303.184 268.48 303.248 263.573 303.887 260.575C304.682 256.841 307.278 251.482 312.39 252.219C313.355 252.363 314.271 252.736 315.063 253.308C315.839 253.861 314.569 248.996 317.19 249.09C320.779 249.218 318.951 263.4 315.059 268.398" stroke="#1A1A1A" stroke-width="0.49032" stroke-linecap="round" stroke-linejoin="round"/>
<path d="M532.66 286.704C540.381 286.704 546.64 280.444 546.64 272.723C546.64 265.002 540.381 258.743 532.66 258.743C524.939 258.743 518.679 265.002 518.679 272.723C518.679 280.444 524.939 286.704 532.66 286.704Z" stroke="#1A1A1A" stroke-width="0.73548" stroke-linecap="round" stroke-linejoin="round"/>
<path d="M70.0424 268.398C81.0927 268.398 90.0508 259.44 90.0508 248.389C90.0508 237.339 81.0927 228.381 70.0424 228.381C58.992 228.381 50.0339 237.339 50.0339 248.389C50.0339 259.44 58.992 268.398 70.0424 268.398Z" fill="white" stroke="#1A1A1A" stroke-width="0.49032" stroke-linecap="round" stroke-linejoin="round"/>
<path d="M110.059 358.733C122.62 358.733 132.803 348.55 132.803 335.99C132.803 323.429 122.62 313.246 110.059 313.246C97.4982 313.246 87.3157 323.429 87.3157 335.99C87.3157 348.55 97.4982 358.733 110.059 358.733Z" fill="white" stroke="#1A1A1A" stroke-width="0.49032" stroke-linecap="round" stroke-linejoin="round"/>
<path d="M115.622 347.024C113.605 348.088 111.552 348.491 109.095 348.491C103.082 348.491 97.9854 344.091 97.9854 337.051C97.9854 329.498 103.229 322.971 111.368 322.971C117.748 322.971 122.038 327.445 122.038 333.568C122.038 339.068 118.958 342.294 115.512 342.294C114.045 342.294 112.688 341.304 112.798 339.068H112.652C111.368 341.231 109.682 342.294 107.482 342.294C105.355 342.294 103.522 340.571 103.522 337.674C103.518 336.532 103.74 335.4 104.175 334.344C104.61 333.288 105.25 332.328 106.058 331.521C106.866 330.713 107.825 330.073 108.881 329.638C109.938 329.202 111.069 328.981 112.212 328.985C113.559 328.965 114.895 329.227 116.135 329.755L114.888 336.391C114.338 339.178 114.778 340.461 115.988 340.498C117.858 340.534 119.948 338.041 119.948 333.788C119.948 328.471 116.758 324.658 111.075 324.658C105.099 324.658 100.075 329.388 100.075 336.831C100.075 342.954 104.072 346.731 109.498 346.731C111.588 346.731 113.532 346.291 115.035 345.448L115.622 347.024ZM113.605 331.185C113.01 331.01 112.392 330.923 111.772 330.928C108.545 330.928 105.942 333.971 105.942 337.528C105.942 339.141 106.749 340.314 108.362 340.314C110.488 340.314 112.432 337.601 112.835 335.328L113.605 331.185ZM186.407 120.069H124.81C121.961 120.069 119.228 121.201 117.213 123.216C115.198 125.231 114.066 127.963 114.066 130.813V143.751C114.066 146.6 115.198 149.333 117.213 151.348C119.228 153.363 121.961 154.495 124.81 154.495H174.003C176.161 157.633 179.803 162.755 182.95 167.153C184.541 169.376 188.046 168.016 187.724 165.301L186.442 154.494C189.285 154.485 192.009 153.349 194.017 151.335C196.024 149.321 197.151 146.594 197.151 143.751V130.813C197.151 127.963 196.019 125.231 194.004 123.216C191.989 121.201 189.257 120.069 186.407 120.069Z" fill="white" stroke="#1A1A1A" stroke-width="0.49032" stroke-linecap="round" stroke-linejoin="round"/>
<path d="M181.631 127.044H126.622V131.907H181.631V127.044Z" fill="white" stroke="#1A1A1A" stroke-width="0.49032" stroke-linecap="round" stroke-linejoin="round"/>
<path d="M181.631 139.305H126.622V144.167H181.631V139.305Z" fill="white" stroke="#1A1A1A" stroke-width="0.49032" stroke-linecap="round" stroke-linejoin="round"/>
</g>
</g>
<defs>
<clipPath id="clip0_35_107">
<rect width="626" height="626" fill="white"/>
</clipPath>
<clipPath id="clip1_35_107">
<rect width="626" height="626" fill="white"/>
</clipPath>
</defs>
</svg>
